<svg width="121" height="30" viewBox="0 0 121 30" fill="none" xmlns="http://www.w3.org/2000/svg">
<path d="M50.1008 10.4444H53.8439L54.5045 12.4444H56.8164L53.4036 3.11111H50.4311L47.0182 12.4444H49.4403L50.1008 10.4444ZM51.532 5.88889C51.6421 5.55556 51.6421 5.22222 51.6421 4.77778C51.6421 4.66667 51.6421 4.55556 51.8623 4.55556C52.0825 4.55556 52.0825 4.66667 52.0825 4.77778C52.0825 5.22222 52.0825 5.55556 52.1926 5.88889L53.0733 8.66667H50.5412L51.532 5.88889Z" fill="#FFFFFF"/>
<path d="M59.3485 9.77778C59.3485 8.11111 60.1192 7 60.9999 7C61.7705 7 62.1008 7.44445 62.1008 9V12.4444H64.1926V8.22222C64.1926 6.22222 63.2017 5.22222 61.6604 5.22222C60.4494 5.22222 59.6788 6.22222 59.3485 6.88889C59.3485 7 59.2384 7.11111 59.0182 7.11111C58.7981 7 59.0182 6.77778 59.1283 6.55556C59.2384 6.33333 59.3485 6.11111 59.3485 5.77778V5.44444H57.2568V12.4444H59.3485V9.77778Z" fill="#FFFFFF"/>
<path d="M67.9357 12.3333C68.9265 12.3333 69.6971 12 70.1375 11.1111C70.1375 11 70.2476 10.8889 70.3577 11C70.5779 11.1111 70.4678 11.2222 70.3577 11.5556C70.2476 11.7778 70.2476 11.8889 70.2476 12.1111C70.2476 13 69.9173 13.6667 68.7063 13.6667C67.7155 13.6667 67.3852 13.3333 67.2751 12.7778H65.1834C65.4036 14.3333 66.5045 15.2222 68.7063 15.2222C70.9082 15.2222 72.3394 14.2222 72.3394 12V5.44444H70.2476V5.66667C70.2476 5.88889 70.2476 6.11111 70.3577 6.22222C70.4678 6.44444 70.5779 6.66667 70.3577 6.77778C70.2476 6.77778 70.1375 6.66667 70.1375 6.66667C69.6971 5.88889 69.0366 5.33333 67.9357 5.33333C66.0641 5.33333 64.8531 6.88889 64.8531 8.88889C64.9632 10.8889 66.0641 12.3333 67.9357 12.3333ZM68.5962 7C69.5871 7 70.2476 7.77778 70.2476 8.77778C70.2476 9.77778 69.5871 10.5556 68.5962 10.5556C67.4953 10.5556 67.0549 9.77778 67.0549 8.77778C67.0549 7.77778 67.4953 7 68.5962 7Z" fill="#FFFFFF"/>
<path d="M76.8531 12.6667C78.8348 12.6667 79.9357 11.4444 80.1559 10.1111H78.0641C77.8439 10.6667 77.5137 11 76.8531 11C75.9724 11 75.4219 10.4444 75.2017 9.55556H80.266C80.266 9.33333 80.266 9 80.266 8.77778C80.266 6.33333 78.5045 5.22222 76.743 5.22222C74.4311 5.22222 73.11 6.77778 73.11 9C73.2201 11 74.4311 12.6667 76.8531 12.6667ZM76.8531 6.88889C77.6237 6.88889 78.1742 7.33333 78.2843 8.22222H75.3118C75.4219 7.44445 75.8623 6.88889 76.8531 6.88889Z" fill="#FFFFFF"/>
<path d="M84.2293 11.1111C83.2384 11.1111 82.9082 10.5556 82.9082 10H80.8164C80.9265 11.6667 82.0274 12.6667 84.2293 12.6667C86.321 12.6667 87.6421 11.6667 87.6421 10.3333C87.6421 8.77778 86.4311 8.22222 84.4494 8C83.3485 7.88889 83.1283 7.66667 83.1283 7.44444C83.1283 7.11111 83.4586 6.88889 84.1192 6.88889C84.8898 6.88889 85.2201 7.22222 85.2201 7.77778H87.3118C87.2017 6.11111 85.8806 5.33333 84.1192 5.33333C82.0274 5.33333 80.9265 6.44444 80.9265 7.66667C80.9265 8.44444 81.1467 9.66667 83.5687 9.88889C84.7797 10 85.3302 10.1111 85.3302 10.5556C85.4403 10.7778 85.11 11.1111 84.2293 11.1111Z" fill="#FFFFFF"/>
<path d="M91.0549 3.55556H88.9632V5.44444H87.6421V7.11111H88.9632V10.3333C88.9632 12 89.6238 12.4444 91.0549 12.4444H93.0366V10.7778H91.7155C91.0549 10.7778 91.0549 10.7778 91.0549 10.1111V7.11111H92.9265V5.44444H91.0549V3.55556Z" fill="#FFFFFF"/>
<path d="M97.11 5.22222C94.7981 5.22222 93.477 6.77778 93.477 8.88889C93.477 11 94.7981 12.6667 97.2201 12.6667C99.2017 12.6667 100.303 11.4444 100.523 10.1111H98.4311C98.2109 10.6667 97.8806 11 97.2201 11C96.3393 11 95.7889 10.4444 95.5687 9.55556H100.633C100.633 9.33333 100.633 9 100.633 8.77778C100.633 6.33333 98.8715 5.22222 97.11 5.22222ZM95.5687 8.22222C95.6788 7.44445 96.1192 6.88889 97.11 6.88889C97.8806 6.88889 98.4311 7.33333 98.5412 8.22222H95.5687Z" fill="#FFFFFF"/>
<path d="M103.605 2.88889H101.514V12.4444H103.605V2.88889Z" fill="#FFFFFF"/>
<path d="M106.908 2.88889H104.816V12.4444H106.908V2.88889Z" fill="#FFFFFF"/>
<path d="M110.871 3.55556H108.78V5.44444H107.459V7.11111H108.78V10.3333C108.78 12 109.44 12.4444 110.871 12.4444H112.853V10.7778H111.532C110.871 10.7778 110.871 10.7778 110.871 10.1111V7.11111H112.743V5.44444H110.871V3.55556Z" fill="#FFFFFF"/>
<path d="M120.449 8.77778C120.449 6.33333 118.688 5.22222 116.927 5.22222C114.615 5.22222 113.293 6.77778 113.293 9C113.293 11.1111 114.615 12.7778 117.037 12.7778C119.018 12.7778 120.119 11.5556 120.339 10.2222H118.248C118.027 10.7778 117.697 11.1111 117.037 11.1111C116.156 11.1111 115.605 10.5556 115.385 9.66667H120.449C120.449 9.22222 120.449 8.88889 120.449 8.77778ZM115.385 8.22222C115.495 7.44445 115.936 6.88889 116.927 6.88889C117.697 6.88889 118.248 7.33333 118.358 8.22222H115.385Z" fill="#FFFFFF"/>
<path d="M51.6421 20.6667C50.2109 20.5556 49.9907 20.1111 49.9907 19.7778C49.9907 19.3333 50.321 18.8889 51.532 18.8889C52.743 18.8889 53.0733 19.5556 53.0733 20.2222H55.165C55.0549 18.6667 54.0641 17.1111 51.532 17.1111C49.11 17.1111 47.7889 18.3333 47.7889 19.8889C47.7889 21.5556 48.6696 22.5556 51.532 22.8889C52.9632 23.1111 53.2935 23.4444 53.2935 24C53.2935 24.5556 52.8531 25.1111 51.532 25.1111C50.1008 25.1111 49.6604 24.2222 49.6604 23.4444H47.4586C47.4586 25.3333 48.7797 27 51.4219 27C54.0641 27 55.3852 25.5556 55.3852 23.8889C55.4953 21.6667 54.0641 21 51.6421 20.6667Z" fill="#FFFFFF"/>
<path d="M59.7889 21.2222C60.5595 21.2222 60.9999 21.7778 61.11 22.4444H63.2017C63.0916 20.8889 61.8806 19.4444 59.7889 19.4444C57.3669 19.4444 56.0458 21.1111 56.0458 23.2222C56.0458 25.2222 57.477 27 59.7889 27C61.8806 27 63.0916 25.5556 63.2017 24H61.11C60.9999 24.6667 60.5595 25.2222 59.7889 25.2222C58.7981 25.2222 58.1375 24.3333 58.1375 23.3333C58.1375 22.3333 58.688 21.2222 59.7889 21.2222Z" fill="#FFFFFF"/>
<path d="M68.4861 19.4444C67.2751 19.4444 66.5045 20.4444 66.1742 21.1111C66.1742 21.2222 66.0641 21.3333 65.8439 21.3333C65.6237 21.2222 65.8439 21 65.954 20.7778C66.0641 20.5556 66.1742 20.3333 66.1742 20V17.1111H64.0825V26.6667H66.1742V24C66.1742 22.3333 66.9449 21.2222 67.8256 21.2222C68.5962 21.2222 68.9265 21.6667 68.9265 23.2222V26.6667H71.0182V22.4444C71.0182 20.4444 70.0274 19.4444 68.4861 19.4444Z" fill="#FFFFFF"/>
<path d="M80.1559 19.6667L79.2751 24C79.2751 24.3333 79.165 24.6667 79.165 24.8889C79.165 25 79.165 25.2222 78.9449 25.2222C78.7247 25.2222 78.7247 25.1111 78.7247 24.8889C78.7247 24.5556 78.7247 24.2222 78.6146 24L78.0641 19.6667H75.532L74.7614 24C74.7614 24.3333 74.6513 24.6667 74.6513 24.8889C74.6513 25 74.6513 25.2222 74.4311 25.2222C74.2109 25.2222 74.2109 25.1111 74.2109 24.8889C74.2109 24.5556 74.2109 24.2222 74.1008 24L73.2201 19.6667H71.0182L72.8898 26.6667H75.7522L76.3027 22.7778C76.3027 22.4444 76.3027 21.8889 76.4127 21.5556C76.4127 21.4444 76.4127 21.2222 76.6329 21.2222C76.8531 21.2222 76.8531 21.3333 76.8531 21.5556C76.8531 21.8889 76.8531 22.4444 76.9632 22.7778L77.5137 26.6667H80.376L82.2476 19.6667H80.1559Z" fill="#FFFFFF"/>
<path d="M85.9907 19.4444C83.6788 19.4444 82.3577 21 82.3577 23.2222C82.3577 25.3333 83.6788 27 86.1008 27C88.0825 27 89.1834 25.7778 89.4036 24.4444H87.3118C87.0916 25 86.7614 25.3333 86.1008 25.3333C85.2201 25.3333 84.6696 24.7778 84.4494 23.8889H89.5137C89.5137 23.6667 89.5137 23.3333 89.5137 23.1111C89.5137 20.5556 87.7522 19.4444 85.9907 19.4444ZM84.4494 22.4444C84.5595 21.6667 84.9999 21.1111 85.9907 21.1111C86.7614 21.1111 87.3118 21.5556 87.4219 22.4444H84.4494Z" fill="#FFFFFF"/>
<path d="M92.376 19.6667H90.2843V26.6667H92.376V19.6667Z" fill="#FFFFFF"/>
<path d="M92.376 17.1111H90.2843V18.7778H92.376V17.1111Z" fill="#FFFFFF"/>
<path d="M93.477 21.4444H96.2293C96.5595 21.4444 96.8898 21.3333 97.11 21.2222C97.2201 21.1111 97.4403 21.1111 97.4403 21.2222C97.4403 21.3333 97.4403 21.4444 97.2201 21.5556C96.8898 21.6667 96.5595 21.8889 96.2293 22.1111L93.477 24.6667V26.6667H99.8623V24.8889H97.11C96.7797 24.8889 96.4494 25 96.2293 25.1111C96.1192 25.2222 95.899 25.2222 95.899 25.1111C95.899 25 95.899 24.8889 96.1192 24.7778C96.4494 24.6667 96.7797 24.4444 97.11 24.2222L99.9724 21.7778V19.7778H93.477V21.4444Z" fill="#FFFFFF"/>
<path d="M27.6421 16L21.8072 0H14.6513L7.6054 19.4444C7.49531 19.4444 7.49531 19.4444 7.38522 19.4444C2.321 19 4.74302 14.6667 7.82559 13.1111C5.29348 13.7778 2.87146 15.2222 1.55036 17.1111C-0.101018 19.5556 1.77054 22.2222 6.3944 22.8889L3.86229 29.7778H11.3485L13.6604 22.7778C16.743 22.4444 19.7155 21.6667 22.3577 20.7778L25.2201 29.7778H32.5962L28.4127 18.2222C35.7889 14.4444 40.3027 9.88889 40.3027 9.88889C35.7889 12.4444 31.4953 14.4444 27.6421 16ZM14.7614 19.3333L18.2843 8.55556L21.3669 18C19.0549 18.6667 16.8531 19 14.7614 19.3333Z" fill="#FFFFFF"/>
</svg>