<?xml version="1.0" encoding="UTF-8" standalone="no"?>
<svg
   xmlns:dc="http://purl.org/dc/elements/1.1/"
   xmlns:cc="http://creativecommons.org/ns#"
   xmlns:rdf="http://www.w3.org/1999/02/22-rdf-syntax-ns#"
   xmlns:svg="http://www.w3.org/2000/svg"
   xmlns="http://www.w3.org/2000/svg"
   viewBox="0 0 453.02667 267.01334"
   height="267.01334"
   width="453.02667"
   xml:space="preserve"
   id="svg2"
   version="1.1"><metadata
     id="metadata8"><rdf:RDF><cc:Work
         rdf:about=""><dc:format>image/svg+xml</dc:format><dc:type
           rdf:resource="http://purl.org/dc/dcmitype/StillImage" /></cc:Work></rdf:RDF></metadata><defs
     id="defs6" /><g
     transform="matrix(1.3333333,0,0,-1.3333333,0,267.01333)"
     id="g10"><g
       transform="scale(0.1)"
       id="g12"><path
         id="path14"
         style="fill:#ffffff;fill-opacity:1;fill-rule:nonzero;stroke:none"
         d="M 295.559,762.691 V 972.859 H 493.91 c 80.707,0 107.613,-53.808 107.613,-104.238 0,-50.43 -26.906,-105.93 -107.613,-105.93 z m 0,669.149 h 183.257 c 80.664,0 105.922,-50.43 105.922,-97.54 0,-47.05 -25.258,-97.48 -105.922,-97.48 H 295.559 Z M 895.762,851.789 c 0,168.121 -99.176,230.361 -147.965,260.591 36.98,25.22 131.137,100.91 131.137,237.06 0,206.83 -132.821,346.36 -381.649,346.36 H 1.32031 V 498.73 H 522.504 c 213.531,0 373.258,124.391 373.258,353.059" /><path
         id="path16"
         style="fill:#ffffff;fill-opacity:1;fill-rule:nonzero;stroke:none"
         d="m 1431.2,231.379 c 24.15,0 38.58,-14.957 43.37,-44.879 l 25.48,4.84 c -2.88,18.68 -10.25,33.922 -22.15,45.719 -11.94,11.761 -27.75,17.671 -47.5,17.671 -23.8,0 -42.62,-9.14 -56.47,-27.39 -13.8,-18.289 -20.73,-41.192 -20.73,-68.762 0,-26.59 6.57,-49.098 19.66,-67.5272 13.1,-18.4727 32.19,-27.6992 57.18,-27.6992 18.43,0 33.79,5.6875 46.13,17.039 12.34,11.3282 20.29,27.0004 23.88,47.0704 l -25.48,4.48 c -6.21,-30.152 -20.95,-45.2418 -44.26,-45.2418 -15.05,0 -26.72,6.4414 -35.02,19.3128 -8.31,12.828 -12.48,30.898 -12.48,54.117 0,21.051 4.22,38.172 12.56,51.41 8.35,13.231 20.29,19.84 35.83,19.84" /><path
         id="path18"
         style="fill:#ffffff;fill-opacity:1;fill-rule:nonzero;stroke:none"
         d="m 1279.33,68.4102 h 28.19 V 249.711 h -28.19 V 68.4102" /><path
         id="path20"
         style="fill:#ffffff;fill-opacity:1;fill-rule:nonzero;stroke:none"
         d="m 1278.08,281.988 h 30.33 v 31.434 h -30.33 v -31.434" /><path
         id="path22"
         style="fill:#ffffff;fill-opacity:1;fill-rule:nonzero;stroke:none"
         d="m 1204.31,244.129 c -9.28,7.051 -20.07,10.601 -32.41,10.601 -25.71,0 -44.8,-14.468 -57.27,-43.46 -2.62,11.992 -8.48,22.199 -17.58,30.718 -9.1,8.481 -20.16,12.742 -33.21,12.742 -23.7,0 -42.3,-13.269 -55.8,-39.859 v 34.84 H 983.801 V 68.4102 h 26.909 V 176.82 c 0,15.801 4.43,28.86 13.27,39.11 8.87,10.3 19.27,15.449 31.25,15.449 8.39,0 16.38,-3.277 23.97,-9.848 7.6,-6.621 11.41,-17.851 11.41,-33.742 V 68.4102 h 27.26 V 170.52 c 0,20.242 5.02,35.281 15,45.148 9.99,9.891 20.38,14.82 31.13,14.82 7.81,0 14.78,-2.437 20.99,-7.277 6.26,-4.84 10.17,-10.172 11.77,-15.981 1.64,-5.82 2.44,-14.519 2.44,-26.101 V 68.4102 h 27.48 V 181.129 c 0,16.652 -1.42,29.519 -4.22,38.66 -2.84,9.191 -8.88,17.27 -18.15,24.34" /><path
         id="path24"
         style="fill:#ffffff;fill-opacity:1;fill-rule:nonzero;stroke:none"
         d="m 704.211,244.211 c -9.5,7.008 -21.039,10.519 -34.535,10.519 -23.485,0 -42.574,-12.832 -57.27,-38.449 v 33.43 H 586.172 V 68.4102 h 28.187 v 99.4488 c 0,18.782 4.883,33.911 14.653,45.411 9.722,11.5 21.797,17.218 36.133,17.218 10.433,0 19.265,-3.418 26.593,-10.25 7.278,-6.797 10.965,-18.597 10.965,-35.34 V 68.4102 H 729.07 V 173.23 c 0,22.86 -1.773,38.661 -5.277,47.411 -3.555,8.699 -10.078,16.597 -19.582,23.57" /><path
         id="path26"
         style="fill:#ffffff;fill-opacity:1;fill-rule:nonzero;stroke:none"
         d="m 32.6758,177.531 c 1.1953,17.008 6.7031,30.5 16.4258,40.578 9.7656,10.032 21.664,15.09 35.6445,15.09 10.3906,0 19.3089,-2.801 26.7269,-8.34 7.457,-5.597 12.695,-12.308 15.8,-20.211 3.11,-7.898 4.797,-16.949 5.02,-27.117 z m 108.3632,52.61 c -14.43,16.379 -33.516,24.589 -57.1796,24.589 -24.0625,0 -44.0352,-8.929 -59.9727,-26.679 C 7.99219,210.25 0,186.941 0,158.039 0,129.762 7.67969,106.949 22.9961,89.5 38.3086,72.0898 58.3789,63.3516 83.1484,63.3516 c 18.7776,0 35.1176,5.1093 48.9646,15.2265 13.895,10.1602 23.215,22.9529 28.012,38.4529 l -26.191,5.41 C 124.48,98.6016 108.188,86.6992 85.1016,86.6992 c -12.7852,0 -24.9453,4.8008 -36.4453,14.3398 -11.5,9.59 -17.2266,28.102 -17.2266,55.5 H 163.191 c -0.355,32.66 -7.769,57.18 -22.152,73.602" /><path
         id="path28"
         style="fill:#ffffff;fill-opacity:1;fill-rule:nonzero;stroke:none"
         d="m 494.719,104.461 c -9.676,-11.8594 -21.707,-17.7618 -36.094,-17.7618 -14.203,0 -26.191,5.6406 -35.867,16.9608 -9.723,11.32 -14.563,30.059 -14.563,56.301 0,24.758 4.84,42.879 14.563,54.277 9.676,11.41 21.531,17.141 35.515,17.141 13.672,0 25.567,-5.629 35.739,-16.961 10.168,-11.316 15.269,-29.52 15.269,-54.648 0,-25.032 -4.883,-43.461 -14.562,-55.309 z M 459.383,254.73 c -23.348,0 -42.887,-8.609 -58.555,-25.878 -15.672,-17.274 -23.484,-40.313 -23.484,-69.172 0,-27.289 6.972,-50.2 20.91,-68.6292 13.937,-18.4727 33.336,-27.6992 58.242,-27.6992 24.641,0 44.746,8.9687 60.289,26.8593 15.582,17.9371 23.352,41.0081 23.352,69.3011 0,27.16 -7.196,49.847 -21.621,68 -14.43,18.117 -34.137,27.218 -59.133,27.218" /><path
         id="path30"
         style="fill:#ffffff;fill-opacity:1;fill-rule:nonzero;stroke:none"
         d="m 1637.89,68.4102 h 28.19 V 249.711 h -28.19 V 68.4102" /><path
         id="path32"
         style="fill:#ffffff;fill-opacity:1;fill-rule:nonzero;stroke:none"
         d="m 892.352,104.461 c -9.723,-11.8594 -21.754,-17.7618 -36.094,-17.7618 -14.246,0 -26.235,5.6406 -35.914,16.9608 -9.676,11.32 -14.559,30.059 -14.559,56.301 0,24.758 4.883,42.879 14.559,54.277 9.679,11.41 21.535,17.141 35.562,17.141 13.629,0 25.524,-5.629 35.688,-16.961 10.168,-11.316 15.273,-29.52 15.273,-54.648 0,-25.032 -4.836,-43.461 -14.515,-55.309 z M 856.973,254.73 c -23.352,0 -42.844,-8.609 -58.512,-25.878 -15.676,-17.274 -23.531,-40.313 -23.531,-69.172 0,-27.289 6.972,-50.2 20.91,-68.6292 13.937,-18.4727 33.34,-27.6992 58.246,-27.6992 24.684,0 44.746,8.9687 60.332,26.8593 15.535,17.9371 23.348,41.0081 23.348,69.3011 0,27.16 -7.235,49.847 -21.664,68 -14.43,18.117 -34.141,27.218 -59.129,27.218" /><path
         id="path34"
         style="fill:#ffffff;fill-opacity:1;fill-rule:nonzero;stroke:none"
         d="m 273.02,231.379 c 24.152,0 38.574,-14.957 43.371,-44.879 l 25.48,4.84 c -2.84,18.68 -10.254,33.922 -22.152,45.719 -11.895,11.761 -27.742,17.671 -47.5,17.671 -23.793,0 -42.617,-9.14 -56.426,-27.39 -13.848,-18.289 -20.727,-41.192 -20.727,-68.762 0,-26.59 6.524,-49.098 19.622,-67.5272 13.136,-18.4727 32.183,-27.6992 57.175,-27.6992 18.422,0 33.828,5.6875 46.129,17.039 12.336,11.3282 20.289,27.0004 23.879,47.0704 l -25.48,4.48 c -6.215,-30.152 -20.953,-45.2418 -44.258,-45.2418 -15.051,0 -26.723,6.4414 -35.031,19.3128 -8.301,12.828 -12.426,30.898 -12.426,54.117 0,21.051 4.172,38.172 12.519,51.41 8.391,13.231 20.332,19.84 35.825,19.84" /><path
         id="path36"
         style="fill:#ffffff;fill-opacity:1;fill-rule:nonzero;stroke:none"
         d="m 2607.66,28.2813 c -12.91,-4.4024 -27.16,-6.5704 -42.7,-6.5704 -16.78,0 -30.54,2.5704 -41.37,7.6407 -10.84,5.0976 -16.25,12.25 -16.25,21.4375 0,10.9218 6.57,19.2226 19.76,24.9492 9.45,-1.1992 24.01,-2.0391 43.77,-2.4883 16.51,-0.4883 28.09,-1.1992 34.75,-2.1719 6.62,-0.9375 11.86,-3.2383 15.68,-6.7968 3.86,-3.5899 5.77,-8.211 5.77,-13.8516 0,-10.3906 -6.49,-17.8008 -19.41,-22.1484 z m -74.84,193.8597 c 8.26,7.109 17.72,10.66 28.37,10.66 11.14,0 20.6,-3.77 28.46,-11.36 7.81,-7.64 11.76,-17.402 11.76,-29.351 0,-11.762 -3.77,-21.301 -11.32,-28.629 -7.54,-7.371 -17.32,-11.051 -29.25,-11.051 -12.12,0 -21.85,3.59 -29.26,10.879 -7.46,7.231 -11.14,16.68 -11.14,28.402 0,13.188 4.13,23.297 12.38,30.45 z M 2618.9,94.5195 c -9.9,2.211 -25.17,3.5899 -45.85,4.211 -24.43,0.5781 -39.92,1.9605 -46.53,4.1405 -6.57,2.117 -9.86,6.828 -9.86,13.981 0,5.058 2.26,9.136 6.83,12.289 4.54,3.199 8.44,4.75 11.68,4.75 1.64,0 5.78,-0.61 12.39,-1.95 3.46,-0.722 7.59,-1.07 12.39,-1.07 21.26,0 38.22,5.91 50.87,17.758 12.61,11.851 18.95,26.012 18.95,42.531 0,15.809 -5.81,30.41 -17.44,43.809 1.47,7.781 4.35,13.191 8.7,16.172 4.4,2.968 13.05,4.48 25.97,4.48 v 22.418 c -3.37,0.262 -5.68,0.402 -7.01,0.402 -13.27,0 -23.18,-2.312 -29.7,-6.839 -6.53,-4.571 -10.7,-12.743 -12.48,-24.59 -11.14,5.136 -23.52,7.718 -37.16,7.718 -19.26,0 -35.59,-5.769 -49,-17.23 -13.41,-11.488 -20.12,-26.191 -20.12,-44.121 0,-19.258 7.82,-35.25 23.54,-47.899 -16.79,-7.46 -25.13,-18.16 -25.13,-32.152 0,-11.707 5.9,-21.4296 17.75,-29.2382 -18.41,-6.5781 -27.65,-18.6992 -27.65,-36.2695 0,-14.5195 6.61,-26.1094 19.84,-34.8086 C 2513.11,4.35156 2534.15,0 2562.97,0 c 60.82,0 91.18,17.3203 91.18,51.8984 0,11 -3.37,20.2813 -10.22,27.8829 -6.83,7.5898 -15.17,12.5195 -25.03,14.7382" /><path
         id="path38"
         style="fill:#ffffff;fill-opacity:1;fill-rule:nonzero;stroke:none"
         d="m 2409.59,281.988 h 30.32 v 31.434 h -30.32 v -31.434" /><path
         id="path40"
         style="fill:#ffffff;fill-opacity:1;fill-rule:nonzero;stroke:none"
         d="m 2701.65,177.531 c 1.2,17.008 6.66,30.5 16.42,40.578 9.77,10.032 21.63,15.09 35.65,15.09 10.39,0 19.32,-2.801 26.73,-8.34 7.41,-5.597 12.69,-12.308 15.8,-20.211 3.11,-7.898 4.79,-16.949 5.02,-27.117 z m 108.32,52.61 c -14.42,16.379 -33.48,24.589 -57.18,24.589 -24.06,0 -44.04,-8.929 -59.93,-26.679 -15.94,-17.801 -23.89,-41.11 -23.89,-70.012 0,-28.277 7.64,-51.09 23,-68.539 15.31,-17.4102 35.34,-26.1484 60.11,-26.1484 18.78,0 35.12,5.1093 49.01,15.2265 13.9,10.1602 23.22,22.9529 28.01,38.4529 l -26.23,5.41 c -9.46,-23.8394 -25.7,-35.7418 -48.79,-35.7418 -12.83,0 -24.95,4.8008 -36.44,14.3398 -11.51,9.59 -17.23,28.102 -17.23,55.5 h 131.76 c -0.4,32.66 -7.77,57.18 -22.2,73.602" /><path
         id="path42"
         style="fill:#ffffff;fill-opacity:1;fill-rule:nonzero;stroke:none"
         d="m 2996.2,244.211 c -9.5,7.008 -21,10.519 -34.54,10.519 -23.44,0 -42.53,-12.832 -57.27,-38.449 v 33.43 H 2878.2 V 68.4102 h 28.15 v 99.4488 c 0,18.782 4.88,33.911 14.64,45.411 9.77,11.5 21.8,17.218 36.19,17.218 10.39,0 19.26,-3.418 26.55,-10.25 7.32,-6.797 10.97,-18.597 10.97,-35.34 V 68.4102 h 26.36 V 173.23 c 0,22.86 -1.74,38.661 -5.28,47.411 -3.51,8.699 -10.04,16.597 -19.58,23.57" /><path
         id="path44"
         style="fill:#ffffff;fill-opacity:1;fill-rule:nonzero;stroke:none"
         d="m 3283.6,218.109 c 9.77,10.032 21.62,15.09 35.65,15.09 10.39,0 19.31,-2.801 26.73,-8.34 7.41,-5.597 12.69,-12.308 15.8,-20.211 3.11,-7.898 4.79,-16.949 5.02,-27.117 h -99.62 c 1.2,17.008 6.66,30.5 16.42,40.578 z m 36.01,-131.4098 c -12.83,0 -24.95,4.8008 -36.45,14.3398 -11.5,9.59 -17.22,28.102 -17.22,55.5 h 131.75 c -0.35,32.66 -7.76,57.18 -22.19,73.602 -14.39,16.379 -33.47,24.589 -57.13,24.589 -24.06,0 -44.09,-8.929 -59.98,-26.679 -15.94,-17.801 -23.89,-41.11 -23.89,-70.012 0,-28.277 7.69,-51.09 23,-68.539 15.31,-17.4102 35.34,-26.1484 60.11,-26.1484 18.82,0 35.11,5.1093 49.01,15.2265 13.9,10.1602 23.21,22.9529 28.01,38.4529 l -26.19,5.41 c -9.46,-23.8394 -25.75,-35.7418 -48.83,-35.7418" /><path
         id="path46"
         style="fill:#ffffff;fill-opacity:1;fill-rule:nonzero;stroke:none"
         d="m 3137.6,231.379 c 24.1,0 38.57,-14.957 43.32,-44.879 l 25.48,4.84 c -2.84,18.68 -10.25,33.922 -22.15,45.719 -11.9,11.761 -27.75,17.671 -47.45,17.671 -23.84,0 -42.67,-9.14 -56.47,-27.39 -13.86,-18.289 -20.73,-41.192 -20.73,-68.762 0,-26.59 6.52,-49.098 19.66,-67.5272 13.09,-18.4727 32.14,-27.6992 57.13,-27.6992 18.47,0 33.83,5.6875 46.18,17.039 12.29,11.3282 20.28,27.0004 23.83,47.0704 l -25.48,4.48 c -6.21,-30.152 -20.95,-45.2418 -44.26,-45.2418 -15.05,0 -26.72,6.4414 -35.02,19.3128 -8.31,12.828 -12.43,30.898 -12.43,54.117 0,21.051 4.17,38.172 12.52,51.41 8.39,13.231 20.33,19.84 35.87,19.84" /><path
         id="path48"
         style="fill:#ffffff;fill-opacity:1;fill-rule:nonzero;stroke:none"
         d="m 2410.83,68.4102 h 28.19 V 249.711 h -28.19 V 68.4102" /><path
         id="path50"
         style="fill:#ffffff;fill-opacity:1;fill-rule:nonzero;stroke:none"
         d="m 1960.11,113.648 v 113.961 h 40.57 v 22.102 h -40.57 v 48.09 l -26.2,-2.492 -1.25,-45.598 h -32.13 v -22.102 h 32.13 V 118.352 c 0,-36.6723 17.54,-55.0004 52.57,-55.0004 7.33,0 15.94,0.6679 25.88,2 v 22.2382 c -8.17,-1.289 -15.45,-1.9492 -21.93,-1.9492 -19.36,0 -29.07,9.3203 -29.07,28.0074" /><path
         id="path52"
         style="fill:#ffffff;fill-opacity:1;fill-rule:nonzero;stroke:none"
         d="m 1636.65,281.988 h 30.32 v 31.434 h -30.32 v -31.434" /><path
         id="path54"
         style="fill:#ffffff;fill-opacity:1;fill-rule:nonzero;stroke:none"
         d="m 1843.97,244.211 c -9.5,7.008 -21.04,10.519 -34.54,10.519 -23.48,0 -42.58,-12.832 -57.26,-38.449 v 33.43 h -26.2 V 68.4102 h 28.15 v 99.4488 c 0,18.782 4.88,33.911 14.65,45.411 9.76,11.5 21.79,17.218 36.18,17.218 10.38,0 19.27,-3.418 26.54,-10.25 7.33,-6.797 10.97,-18.597 10.97,-35.34 V 68.4102 h 26.37 V 173.23 c 0,22.86 -1.78,38.661 -5.29,47.411 -3.54,8.699 -10.03,16.597 -19.57,23.57" /><path
         id="path56"
         style="fill:#ffffff;fill-opacity:1;fill-rule:nonzero;stroke:none"
         d="m 2057.86,177.531 c 1.19,17.008 6.66,30.5 16.43,40.578 9.76,10.032 21.61,15.09 35.64,15.09 10.39,0 19.31,-2.801 26.73,-8.34 7.41,-5.597 12.69,-12.308 15.8,-20.211 3.1,-7.898 4.79,-16.949 5.02,-27.117 z m 108.32,52.61 c -14.43,16.379 -33.48,24.589 -57.18,24.589 -24.02,0 -44.04,-8.929 -59.93,-26.679 -15.94,-17.801 -23.89,-41.11 -23.89,-70.012 0,-28.277 7.68,-51.09 23,-68.539 15.31,-17.4102 35.33,-26.1484 60.11,-26.1484 18.78,0 35.12,5.1093 49,15.2265 13.9,10.1602 23.23,22.9529 28.02,38.4529 l -26.19,5.41 c -9.45,-23.8394 -25.75,-35.7418 -48.84,-35.7418 -12.82,0 -24.94,4.8008 -36.44,14.3398 -11.5,9.59 -17.23,28.102 -17.23,55.5 h 131.77 c -0.36,32.66 -7.78,57.18 -22.2,73.602" /><path
         id="path58"
         style="fill:#ffffff;fill-opacity:1;fill-rule:nonzero;stroke:none"
         d="m 2322.62,68.4102 h 28.19 V 313.422 h -28.19 V 68.4102" /><path
         id="path60"
         style="fill:#ffffff;fill-opacity:1;fill-rule:nonzero;stroke:none"
         d="m 2234.41,68.4102 h 28.19 V 313.422 h -28.19 V 68.4102" /><path
         id="path62"
         style="fill:#ffffff;fill-opacity:1;fill-rule:nonzero;stroke:none"
         d="m 3158.73,498.719 -516.83,627.411 482.07,564.23 h -360.21 l -374.54,-483.57 h -3.16 v 483.57 H 2092.18 V 498.719 h 293.88 V 1007.6 h 3.16 l 399.84,-508.881 h 369.67" /><path
         id="path64"
         style="fill:#ffffff;fill-opacity:1;fill-rule:nonzero;stroke:none"
         d="M 1458.3,2002.62 915.766,498.711 h 307.694 l 234.84,743.139 234.84,-743.139 h 307.69 L 1458.3,2002.62" /></g></g></svg>