<svg width="281" height="68" viewBox="0 0 281 68" fill="none" xmlns="http://www.w3.org/2000/svg">
<path d="M93.913 23.9939C91.7403 23.9939 89.7224 24.5965 87.8648 25.8017C86.0017 27.007 84.5532 28.6766 83.5193 30.8051C82.4855 32.9335 81.9658 35.355 81.9658 38.0696V38.9265C81.9658 43.001 83.1268 46.2573 85.4543 48.6899C87.7763 51.1224 90.7949 52.3387 94.499 52.3387C99.0822 52.3387 102.515 50.5806 104.81 47.059L101.957 44.8365C101.1 45.9477 100.094 46.8434 98.9495 47.5123C97.8051 48.1868 96.4064 48.524 94.7533 48.524C92.4314 48.524 90.5129 47.6947 89.0037 46.0362C87.4944 44.3776 86.7093 42.1994 86.643 39.507H105.164V37.5609C105.164 33.1989 104.179 29.8486 102.206 27.5045C100.238 25.1659 97.4734 23.9939 93.9185 23.9939H93.913ZM100.481 35.6646H86.7867C87.0908 33.1879 87.8814 31.2639 89.164 29.8929C90.4411 28.5218 92.0278 27.8362 93.913 27.8362C95.7982 27.8362 97.4181 28.4886 98.5625 29.7933C99.7069 31.0981 100.348 32.9391 100.481 35.3163V35.6702V35.6646Z" fill="white"/>
<path d="M114.374 14.5455C113.462 14.5455 112.777 14.8054 112.318 15.3306C111.853 15.8558 111.621 16.4916 111.621 17.249C111.621 18.0064 111.853 18.6367 112.318 19.1453C112.782 19.6539 113.468 19.9027 114.374 19.9027C115.281 19.9027 115.972 19.6484 116.448 19.1453C116.917 18.6422 117.155 18.0064 117.155 17.249C117.155 16.4916 116.917 15.8503 116.448 15.3306C115.978 14.8109 115.287 14.5455 114.374 14.5455Z" fill="white"/>
<path d="M116.669 24.5024H111.997V51.8411H116.669V24.5024Z" fill="white"/>
<path d="M137.948 23.9939C134.581 23.9939 131.85 25.3097 129.761 27.9357L129.611 24.497H125.188V51.8356H129.86V32.3586C130.501 31.0428 131.391 29.9813 132.536 29.1741C133.68 28.367 135.013 27.9634 136.528 27.9634C138.396 27.9634 139.773 28.4333 140.657 29.3787C141.542 30.3241 141.99 31.7781 142.012 33.7518V51.8412H146.683V33.7794C146.634 27.2613 143.72 23.9994 137.943 23.9994L137.948 23.9939Z" fill="white"/>
<path d="M171.092 37.9148C169.643 37.1905 167.752 36.5658 165.419 36.0461C163.086 35.5264 161.472 34.9791 160.582 34.4041C159.686 33.8292 159.244 32.9833 159.244 31.85C159.244 30.6558 159.725 29.6883 160.681 28.9475C161.643 28.2066 162.97 27.8362 164.673 27.8362C166.376 27.8362 167.692 28.3006 168.781 29.2239C169.87 30.1527 170.412 31.2529 170.412 32.5355H175.111C175.111 30.0421 174.149 27.9966 172.219 26.3933C170.29 24.7955 167.774 23.9939 164.679 23.9939C161.583 23.9939 159.31 24.7679 157.414 26.3159C155.518 27.8639 154.572 29.7602 154.572 31.9992C154.572 33.3482 154.904 34.5092 155.573 35.4877C156.236 36.4663 157.265 37.3066 158.658 38.0143C160.046 38.7219 161.925 39.3301 164.292 39.8332C166.658 40.3363 168.316 40.9389 169.267 41.641C170.218 42.3376 170.694 43.3217 170.694 44.5822C170.694 45.7763 170.157 46.7328 169.09 47.4515C168.018 48.1647 166.602 48.524 164.833 48.524C162.915 48.524 161.367 48.0652 160.195 47.1474C159.023 46.2297 158.398 44.9858 158.315 43.4212H153.644C153.644 45.0355 154.119 46.5393 155.07 47.9325C156.021 49.3201 157.342 50.4037 159.023 51.1777C160.709 51.9517 162.644 52.3387 164.833 52.3387C167.951 52.3387 170.483 51.6034 172.441 50.1273C174.392 48.6512 175.371 46.6941 175.371 44.256C175.371 42.7909 175.022 41.547 174.32 40.5298C173.624 39.5125 172.546 38.639 171.097 37.9148H171.092Z" fill="white"/>
<path d="M189.513 47.5564C189.06 47.0091 188.833 46.1854 188.833 45.0907V28.1181H193.936V24.5024H188.833V17.8848H184.161V24.5024H179.186V28.1181H184.161V45.0741C184.161 47.3961 184.692 49.1929 185.753 50.4534C186.815 51.7194 188.391 52.3497 190.48 52.3497C191.641 52.3497 192.841 52.1838 194.068 51.8466V48.0761C193.123 48.2807 192.382 48.3802 191.846 48.3802C190.751 48.3802 189.977 48.1038 189.524 47.5564H189.513Z" fill="white"/>
<path d="M213.861 15.0487L200.167 51.8356H208.227L210.754 44.256H224.044L226.598 51.8356H234.659L220.887 15.0487H213.866H213.861ZM212.799 38.1193L217.371 24.3477L221.993 38.1193H212.799Z" fill="white"/>
<path d="M250.288 15.0487H242.708V51.8356H250.288V15.0487Z" fill="white"/>
<path d="M271.363 23.9939C267.996 23.9939 265.265 25.3097 263.175 27.9357L263.026 24.497H258.603V51.8356H263.275V32.3586C263.916 31.0428 264.806 29.9813 265.95 29.1741C267.095 28.367 268.427 27.9634 269.942 27.9634C271.811 27.9634 273.187 28.4333 274.072 29.3787C274.956 30.3241 275.404 31.7781 275.426 33.7518V51.8412H280.098V33.7794C280.048 27.2613 277.135 23.9994 271.357 23.9994L271.363 23.9939Z" fill="white"/>
<path d="M63.0254 24.8729C65.469 24.8729 67.4482 22.8937 67.4482 20.4501C67.4482 18.0065 65.469 16.0272 63.0254 16.0272C60.5817 16.0272 58.6025 18.0065 58.6025 20.4501C58.6025 20.8205 58.6523 21.1798 58.7407 21.5226L46.7162 25.8957L47.9656 19.3333C48.0098 19.3333 48.0541 19.3444 48.1038 19.3444C49.3256 19.3444 50.3153 18.3548 50.3153 17.1329C50.3153 15.9111 49.3256 14.9215 48.1038 14.9215C46.882 14.9215 45.8924 15.9111 45.8924 17.1329C45.8924 18.117 46.5393 18.9408 47.4238 19.2283L46.1357 25.9897C46.0527 25.9841 45.9753 25.9786 45.8924 25.9786C44.9083 25.9786 44.0238 26.4098 43.4156 27.0954L43.388 27.1064L40.7066 25.669L35.7697 8.58029C37.478 7.96663 38.7053 6.34124 38.7053 4.42283C38.7053 1.97922 36.7261 0 34.2825 0C31.8389 0 29.8596 1.97922 29.8596 4.42283C29.8596 5.49537 30.2411 6.47945 30.8769 7.24792L27.0401 11.339C26.725 11.1677 26.3711 11.0626 25.9841 11.0626C24.7623 11.0626 23.7727 12.0522 23.7727 13.274C23.7727 13.8711 24.0105 14.4129 24.3974 14.811L20.4998 19.6871C20.1626 19.4826 19.7701 19.3554 19.3499 19.3554C18.3769 19.3554 17.5642 19.9857 17.2656 20.8592L8.83461 20.2345C8.71298 17.8959 6.78905 16.0383 4.42283 16.0383C2.05662 16.0383 0 18.0065 0 20.4501C0 22.8937 1.97922 24.8729 4.42283 24.8729C5.44561 24.8729 6.38546 24.5246 7.13182 23.9386L11.3722 28.179C11.1787 28.5052 11.0571 28.8866 11.0571 29.2957C11.0571 30.5175 12.0467 31.5072 13.2685 31.5072C13.6776 31.5072 14.0591 31.3911 14.3853 31.192L17.1993 34.0061C16.8123 34.5479 16.5856 35.2113 16.5856 35.9245C16.5856 35.9963 16.5912 36.0682 16.5967 36.1401L10.9631 36.9859C10.7033 36.0571 9.85739 35.3716 8.84566 35.3716C7.62386 35.3716 6.63425 36.3612 6.63425 37.583C6.63425 38.8048 7.62386 39.7944 8.84566 39.7944C10.0675 39.7944 11.0571 38.8048 11.0571 37.583C11.0571 37.5664 11.0571 37.5498 11.0571 37.5333L16.6796 36.6874C16.7791 37.102 16.9505 37.4835 17.1827 37.8207L7.39166 45.9201C6.60661 45.2069 5.56724 44.7701 4.42283 44.7701C1.97922 44.7701 0 46.7493 0 49.193C0 51.6366 1.97922 53.6158 4.42283 53.6158C6.86645 53.6158 8.84566 51.6366 8.84566 49.193C8.84566 48.9939 8.82908 48.8004 8.80144 48.6069L22.8052 45.5109C23.0374 46.1633 23.5626 46.6664 24.2261 46.871L23.3249 51.9683C23.2862 51.9683 23.253 51.9572 23.2199 51.9572C21.9981 51.9572 21.0085 52.9468 21.0085 54.1686C21.0085 55.3904 21.9981 56.3801 23.2199 56.3801C24.4417 56.3801 25.4313 55.3904 25.4313 54.1686C25.4313 53.1735 24.7734 52.3442 23.8722 52.0678L24.7734 46.9705C24.8121 46.9705 24.8453 46.9815 24.8784 46.9815C25.7022 46.9815 26.4098 46.5282 26.7913 45.8592L29.2405 46.871L32.8064 59.3986C31.087 60.0068 29.8541 61.6377 29.8541 63.5672C29.8541 66.0108 31.8333 67.99 34.277 67.99C36.7206 67.99 38.6998 66.0108 38.6998 63.5672C38.6998 62.7102 38.451 61.9086 38.0253 61.2341L41.8124 58.1547C42.1772 58.4256 42.6306 58.5915 43.1226 58.5915C44.3444 58.5915 45.334 57.6019 45.334 56.3801C45.334 55.5895 44.9139 54.8984 44.2891 54.5114L46.1799 51.1114C46.5945 51.2993 47.0589 51.4044 47.5454 51.4044C49.1045 51.4044 50.4148 50.3263 50.7631 48.8723L58.6136 49.4307C58.7407 51.7637 60.6647 53.6158 63.0254 53.6158C65.386 53.6158 67.4482 51.6366 67.4482 49.193C67.4482 46.7493 65.469 44.7701 63.0254 44.7701C62.3177 44.7701 61.6488 44.9415 61.0517 45.24L58.0331 40.7122C58.3814 40.3196 58.6025 39.811 58.6025 39.2471C58.6025 39.1587 58.5859 39.0702 58.5749 38.9873L63.1802 37.8373C63.5008 38.6611 64.2969 39.2471 65.2368 39.2471C66.4586 39.2471 67.4482 38.2575 67.4482 37.0357C67.4482 35.8139 66.4586 34.8243 65.2368 34.8243C64.015 34.8243 63.0254 35.8139 63.0254 37.0357C63.0254 37.1241 63.042 37.2126 63.053 37.2955L58.4477 38.4455C58.2321 37.8871 57.7954 37.4337 57.2425 37.2015L58.8347 31.4685C58.9398 31.485 59.0448 31.5016 59.1554 31.5016C60.3772 31.5016 61.3668 30.512 61.3668 29.2902C61.3668 28.0684 60.3772 27.0788 59.1554 27.0788C57.9336 27.0788 56.944 28.0684 56.944 29.2902C56.944 30.2079 57.5023 30.9985 58.304 31.3302L56.7118 37.0633C56.6067 37.0467 56.5017 37.0302 56.3911 37.0302C55.9544 37.0302 55.5508 37.1628 55.208 37.3785L48.6401 31.1423C48.9939 30.6115 49.204 29.9757 49.204 29.2902C49.204 28.9364 49.1487 28.5991 49.0492 28.284L59.3821 22.949C60.1782 24.11 61.5161 24.8674 63.0254 24.8674V24.8729ZM45.8869 32.6129C46.0859 32.6129 46.2794 32.5908 46.4674 32.5576L48.8502 40.2865L45.1184 40.9388L43.8247 36.4552L45.2013 32.5299C45.4225 32.5742 45.6547 32.6018 45.8869 32.6018V32.6129ZM36.2175 42.5034L33.409 41.2706L43.0507 36.9693L41.4254 41.5912L36.2119 42.5089L36.2175 42.5034ZM41.2263 42.1883L40.4579 44.3721L37.1297 42.907L41.2263 42.1883ZM27.8638 40.0377L31.3689 41.5802L28.6489 42.7909L27.8638 40.0377ZM28.3835 43.88L27.0346 44.1178L28.2951 43.5538L28.3891 43.88H28.3835ZM23.1148 36.7372C23.1812 36.4773 23.2199 36.2064 23.2199 35.93C23.2199 35.6314 23.1756 35.3384 23.1038 35.062L24.9724 34.382L26.6144 37.9368L26.244 38.1138L23.1204 36.7372H23.1148ZM24.9282 38.744L22.5896 39.8663L21.9041 38.5726C22.2026 38.346 22.468 38.0695 22.6781 37.7544L24.9337 38.744H24.9282ZM25.4921 34.194L30.9101 32.2259L31.2252 35.7254L27.112 37.6991L25.4921 34.194ZM31.3302 36.8975L31.6509 40.4966L27.5708 38.6998L31.3247 36.8975H31.3302ZM31.7836 41.9948L31.8997 43.2608L28.9309 43.7805L28.8037 43.3272L31.7891 41.9948H31.7836ZM31.2473 23.6566C31.6233 23.5571 31.9771 23.3968 32.2867 23.1812L37.3121 29.3123L31.9273 31.2694L31.2418 23.6566H31.2473ZM37.6825 29.7601L39.3632 31.8112L32.2811 35.2113L31.9771 31.8333L37.677 29.7601H37.6825ZM39.8774 31.568L38.2354 29.5611L40.9665 28.5715L41.5967 30.7442L39.8829 31.568H39.8774ZM41.9063 31.8223L42.8959 35.2444L40.6071 32.4525L41.9119 31.8278L41.9063 31.8223ZM40.0874 32.6903L43.0894 36.3502L32.8008 40.9388L32.3917 36.3889L40.0874 32.6958V32.6903ZM34.2548 42.8517L32.9888 43.0729L32.9169 42.2602L34.2548 42.8462V42.8517ZM43.5041 37.3619L44.5656 41.0384L42.0556 41.4806L43.5041 37.3619ZM44.6706 32.3807L43.5594 35.5485L42.415 31.579L43.1834 31.2086C43.5538 31.7283 44.068 32.1429 44.6706 32.3807ZM42.7024 30.2135L42.0998 30.501L41.4862 28.378L42.8959 27.8638C42.6914 28.2951 42.5698 28.7816 42.5698 29.2902C42.5698 29.6109 42.6195 29.9149 42.7024 30.2079V30.2135ZM42.6859 27.3552L41.3314 27.8473L40.9167 26.4043L42.6859 27.3552ZM40.8117 28.0408L37.865 29.1133L32.7124 22.8329C32.8893 22.6615 33.0496 22.468 33.1823 22.2579L40.2312 26.045L40.8062 28.0408H40.8117ZM34.277 8.84014C34.6087 8.84014 34.9293 8.80144 35.2334 8.73509L40.0211 25.2986L33.4477 21.7714C33.6246 21.3678 33.7241 20.92 33.7241 20.4501C33.7241 19.079 32.8948 17.9069 31.7117 17.3983L33.7849 8.80696C33.9452 8.82355 34.1111 8.83461 34.277 8.83461V8.84014ZM27.8473 12.0854L31.6785 7.99427C31.9937 8.22094 32.3364 8.40891 32.7068 8.55265L30.6336 17.1495C30.5562 17.1495 30.4844 17.1385 30.407 17.1385C29.9647 17.1385 29.55 17.2269 29.1631 17.3817L27.5764 14.7999C27.9578 14.4018 28.1956 13.8656 28.1956 13.2685C28.1956 12.8317 28.0629 12.4282 27.8473 12.0909V12.0854ZM30.7663 30.6226L21.213 22.7334C21.3733 22.4846 21.4784 22.1971 21.5281 21.893L27.2115 21.3236C27.5764 22.6504 28.7374 23.6456 30.1471 23.7506L30.7663 30.6226ZM24.8342 15.1427C25.1714 15.3472 25.564 15.4744 25.9841 15.4744C26.2108 15.4744 26.4264 15.4302 26.631 15.3693L28.2232 17.9567C27.5819 18.5206 27.1617 19.3223 27.1009 20.2234L21.4176 20.7928C21.307 20.4998 21.1467 20.2345 20.9366 20.0188L24.8342 15.1427ZM20.8592 23.1646L30.8327 31.4021L30.8548 31.662L25.2544 33.6965L20.5109 23.43C20.6325 23.3526 20.7486 23.2641 20.8537 23.1646H20.8592ZM20.0133 23.6566L24.7402 33.8844L22.9158 34.5479C22.4127 33.4532 21.3236 32.6792 20.052 32.6239L19.7092 23.734C19.8143 23.7174 19.9138 23.6898 20.0133 23.6566ZM15.1648 30.4125C15.3583 30.0863 15.4799 29.7049 15.4799 29.2957C15.4799 28.0739 14.4903 27.0843 13.2685 27.0843C12.8594 27.0843 12.4779 27.2004 12.1517 27.3994L7.91134 23.1591C8.32045 22.6283 8.619 22.0091 8.75721 21.3236L17.1772 21.9483C17.3541 22.9213 18.1613 23.6622 19.1564 23.7451L19.4992 32.635C18.9408 32.7013 18.4211 32.9114 17.9843 33.221L15.1703 30.407L15.1648 30.4125ZM7.77866 46.3236L17.5365 38.252C18.1391 38.8656 18.9795 39.2471 19.9083 39.2471C20.4611 39.2471 20.9808 39.1089 21.4397 38.8712L22.092 40.104L8.14354 46.7991C8.03297 46.6277 7.91687 46.4674 7.78418 46.3181L7.77866 46.3236ZM22.667 44.7757C22.667 44.842 22.6836 44.9083 22.6891 44.9747L8.69639 48.0707C8.67428 47.9767 8.64664 47.8882 8.61899 47.7998L22.6117 41.0826L23.6124 42.9678C23.043 43.3659 22.6725 44.0238 22.6725 44.7757H22.667ZM26.7637 43.6312C26.3767 42.9955 25.6801 42.5642 24.8784 42.5642C24.602 42.5642 24.3422 42.6195 24.0989 42.7135L23.1093 40.8449L26.2606 39.33L27.2115 39.7502L28.1403 43.0176L26.7637 43.6312ZM27.0014 45.3561C27.0511 45.1682 27.0898 44.9747 27.0898 44.7757C27.0898 44.7369 27.0788 44.7038 27.0788 44.6706L28.5383 44.4163L29.047 46.2131L27.0014 45.3617V45.3561ZM29.0801 44.3168L31.9439 43.8137L32.2811 47.5565L29.6938 46.4784L29.0801 44.3168ZM29.8873 47.1474L32.3364 48.1646L33.3316 59.2494L29.8873 47.1474ZM33.0441 43.6257L35.1726 43.2553L40.0985 45.4225L37.8207 51.9075L33.4587 48.2144L33.0496 43.6312L33.0441 43.6257ZM34.4373 59.1554L33.5251 48.9884L37.6217 52.4548L35.2334 59.2494C34.9735 59.1941 34.7082 59.1609 34.4373 59.1499V59.1554ZM41.1158 57.3033L37.3287 60.3772C36.8864 59.9515 36.3502 59.6198 35.7641 59.4097L38.0695 52.8418L41.1323 55.4347C40.9941 55.7222 40.9112 56.0428 40.9112 56.3856C40.9112 56.7284 40.9886 57.0214 41.1158 57.3033ZM43.786 54.2847C43.576 54.2184 43.3548 54.1742 43.1226 54.1742C42.4426 54.1742 41.8455 54.4893 41.4364 54.9703L38.263 52.2834L40.5961 45.6381L44.3278 47.2801C44.2615 47.5399 44.2228 47.8108 44.2228 48.0872C44.2228 49.2372 44.8088 50.2489 45.6989 50.846L43.786 54.2847ZM44.7757 46.2684L40.9665 44.5932L41.8511 42.0777L44.7259 41.5746L45.7984 45.2787C45.3948 45.5331 45.0465 45.8703 44.7812 46.2684H44.7757ZM49.685 45.5607C49.1045 45.0742 48.3581 44.7757 47.5454 44.7757C47.1032 44.7757 46.6775 44.8641 46.296 45.0244L45.2732 41.4806L49.1543 40.8006L52.4769 42.7743L49.6905 45.5607H49.685ZM58.6855 48.336L50.846 47.7776C50.7796 47.0866 50.5032 46.4563 50.0775 45.9532L52.9634 43.0673L59.2936 46.8267C59.0061 47.2801 58.7905 47.7887 58.6855 48.336ZM56.3911 41.4585C56.6454 41.4585 56.8887 41.4088 57.1154 41.3258L60.1339 45.8537C59.9515 46.014 59.7801 46.1854 59.6198 46.3734L53.367 42.6582L55.0421 40.9831C55.4181 41.2761 55.8825 41.453 56.3911 41.453V41.4585ZM52.8805 42.3707L49.9891 40.6514L54.2903 39.8939C54.3677 40.1538 54.4893 40.386 54.6552 40.5961L52.8805 42.3707ZM54.4617 38.1856C54.2847 38.5008 54.1797 38.8601 54.1797 39.2471C54.1797 39.2858 54.1908 39.319 54.1908 39.3522L49.3975 40.1925L46.9981 32.4138C47.3188 32.2977 47.6118 32.1374 47.8772 31.9384L54.4617 38.1746V38.1856ZM48.5351 27.3055C48.2033 26.8632 47.7666 26.5094 47.2635 26.2772L58.2819 22.2745L48.5351 27.3055Z" fill="white"/>
</svg>