<svg
   version="1.1"
   id="svg1"
   width="1304.8889"
   height="350.62665"
   viewBox="0 0 1304.8889 350.62665"
   xmlns:xlink="http://www.w3.org/1999/xlink"
   xmlns="http://www.w3.org/2000/svg"
   xmlns:svg="http://www.w3.org/2000/svg">
  <g
     id="kuble-logo-svg"
     transform="translate(-67.111337,-50.908538)">
    <path
       id="kuble-logo-k"
       d="m 0,0 -30.072,29.693 -81.915,-82.96 V 76.714 h -42.261 v -260.129 h 42.261 v 70 l 19.485,19.734 69.644,-92.575 33.771,25.405 -73.4,97.568 z"
       style="fill:#ffffff;fill-opacity:1;fill-rule:nonzero;stroke:none"
       transform="matrix(1.3333333,0,0,-1.3333333,272.77533,153.19387)" />
    <path
       id="kuble-logo-u"
       d="m 0,0 c 0,-27.307 -22.216,-49.522 -49.522,-49.522 -27.307,0 -49.523,22.215 -49.523,49.522 v 112.649 h -42.261 V 0 c 0,-50.609 41.174,-91.783 91.784,-91.783 50.609,0 91.783,41.174 91.783,91.783 V 112.649 H 0 Z"
       style="fill:#ffffff;fill-opacity:1;fill-rule:nonzero;stroke:none"
       transform="matrix(1.3333333,0,0,-1.3333333,521.63827,274.1156)" />
    <path
       id="kuble-logo-b"
       d="m 0,0 c -35.831,0 -64.982,29.151 -64.982,64.982 0,35.831 29.151,64.982 64.982,64.982 35.831,0 64.982,-29.151 64.982,-64.982 C 64.982,29.151 35.831,0 0,0 m 0,172.225 c -24.411,0 -46.938,-8.204 -64.982,-21.991 v 68.709 h -42.261 V 63.183 h 0.023 C -106.255,4.877 -58.532,-42.261 0,-42.261 c 59.134,0 107.243,48.109 107.243,107.243 0,59.134 -48.109,107.243 -107.243,107.243"
       style="fill:#ffffff;fill-opacity:1;fill-rule:nonzero;stroke:none"
       transform="matrix(1.3333333,0,0,-1.3333333,781.92347,342.83293)" />
    <path
       id="kuble-logo-l"
       d="m 0,0 c 0,35.075 29.151,63.61 64.982,63.61 14.276,0 27.811,-4.51 38.858,-12.59 L 0.423,-7.277 C 0.144,-4.889 0,-2.46 0,0 m 64.982,-63.609 c -17.806,0 -33.964,7.049 -45.713,18.443 L 167.51,38.398 155.185,57.282 C 135.328,87.706 101.607,105.87 64.982,105.87 5.848,105.87 -42.261,58.377 -42.261,0 c 0,-58.377 48.109,-105.87 107.243,-105.87 34.913,0 67.746,16.86 87.826,45.1 l -34.441,24.491 c -12.168,-17.113 -32.125,-27.33 -53.385,-27.33"
       style="fill:#ffffff;fill-opacity:1;fill-rule:nonzero;stroke:none"
       transform="matrix(1.3333333,0,0,-1.3333333,1148.6536,254.36)" />
    <path
       id="kuble-logo-e"
       d="M 0,0 V 191.793 H -42.261 V 0 c 0,-37.624 30.529,-69.41 66.665,-69.41 h 9.221 v 42.261 H 24.404 C 11.631,-27.149 0,-14.209 0,0"
       style="fill:#ffffff;fill-opacity:1;fill-rule:nonzero;stroke:none"
       transform="matrix(1.3333333,0,0,-1.3333333,1028.8148,306.63373)" />
  </g>
</svg>