<svg width="164" height="60" viewBox="0 0 164 60" fill="none" xmlns="http://www.w3.org/2000/svg">
<path d="M12.6975 44.95H13.8475V53H12.6975V44.95ZM8.07454 53H6.92454V44.95H8.07454V53ZM12.801 49.412H7.95954V48.4115H12.801V49.412ZM19.8911 53.092C19.2777 53.092 18.7066 52.9885 18.1776 52.7815C17.6562 52.5745 17.2039 52.287 16.8206 51.919C16.4372 51.5433 16.1382 51.1063 15.9236 50.608C15.7089 50.1097 15.6016 49.5653 15.6016 48.975C15.6016 48.3847 15.7089 47.8403 15.9236 47.342C16.1382 46.8437 16.4372 46.4105 16.8206 46.0425C17.2039 45.6668 17.6562 45.3755 18.1776 45.1685C18.6989 44.9615 19.2701 44.858 19.8911 44.858C20.5044 44.858 21.0679 44.9615 21.5816 45.1685C22.1029 45.3678 22.5552 45.6553 22.9386 46.031C23.3296 46.399 23.6286 46.8322 23.8356 47.3305C24.0502 47.8288 24.1576 48.377 24.1576 48.975C24.1576 49.573 24.0502 50.1212 23.8356 50.6195C23.6286 51.1178 23.3296 51.5548 22.9386 51.9305C22.5552 52.2985 22.1029 52.586 21.5816 52.793C21.0679 52.9923 20.5044 53.092 19.8911 53.092ZM19.8911 52.0685C20.3357 52.0685 20.7459 51.9918 21.1216 51.8385C21.5049 51.6852 21.8346 51.4705 22.1106 51.1945C22.3942 50.9108 22.6127 50.5812 22.7661 50.2055C22.9271 49.8298 23.0076 49.4197 23.0076 48.975C23.0076 48.5303 22.9271 48.1202 22.7661 47.7445C22.6127 47.3688 22.3942 47.043 22.1106 46.767C21.8346 46.4833 21.5049 46.2648 21.1216 46.1115C20.7459 45.9582 20.3357 45.8815 19.8911 45.8815C19.4387 45.8815 19.0209 45.9582 18.6376 46.1115C18.2619 46.2648 17.9322 46.4833 17.6486 46.767C17.3649 47.043 17.1426 47.3688 16.9816 47.7445C16.8282 48.1202 16.7516 48.5303 16.7516 48.975C16.7516 49.4197 16.8282 49.8298 16.9816 50.2055C17.1426 50.5812 17.3649 50.9108 17.6486 51.1945C17.9322 51.4705 18.2619 51.6852 18.6376 51.8385C19.0209 51.9918 19.4387 52.0685 19.8911 52.0685ZM29.2503 53.092C28.1923 53.092 27.3604 52.7892 26.7548 52.1835C26.1491 51.5778 25.8463 50.6923 25.8463 49.527V44.95H26.9963V49.481C26.9963 50.378 27.1918 51.0335 27.5828 51.4475C27.9814 51.8615 28.5411 52.0685 29.2618 52.0685C29.9901 52.0685 30.5498 51.8615 30.9408 51.4475C31.3394 51.0335 31.5388 50.378 31.5388 49.481V44.95H32.6543V49.527C32.6543 50.6923 32.3514 51.5778 31.7458 52.1835C31.1478 52.7892 30.3159 53.092 29.2503 53.092ZM37.3579 53.092C36.7446 53.092 36.1581 53 35.5984 52.816C35.0388 52.6243 34.5979 52.379 34.2759 52.08L34.7014 51.183C35.0081 51.4513 35.3991 51.6737 35.8744 51.85C36.3498 52.0263 36.8443 52.1145 37.3579 52.1145C37.8256 52.1145 38.2051 52.0608 38.4964 51.9535C38.7878 51.8462 39.0024 51.7005 39.1404 51.5165C39.2784 51.3248 39.3474 51.1102 39.3474 50.8725C39.3474 50.5965 39.2554 50.3742 39.0714 50.2055C38.8951 50.0368 38.6613 49.9027 38.3699 49.803C38.0863 49.6957 37.7719 49.6037 37.4269 49.527C37.0819 49.4503 36.7331 49.3622 36.3804 49.2625C36.0354 49.1552 35.7173 49.021 35.4259 48.86C35.1423 48.699 34.9123 48.4843 34.7359 48.216C34.5596 47.94 34.4714 47.5873 34.4714 47.158C34.4714 46.744 34.5788 46.3645 34.7934 46.0195C35.0158 45.6668 35.3531 45.387 35.8054 45.18C36.2654 44.9653 36.8481 44.858 37.5534 44.858C38.0211 44.858 38.4849 44.9193 38.9449 45.042C39.4049 45.1647 39.8036 45.341 40.1409 45.571L39.7614 46.491C39.4164 46.261 39.0523 46.0962 38.6689 45.9965C38.2856 45.8892 37.9138 45.8355 37.5534 45.8355C37.1011 45.8355 36.7293 45.893 36.4379 46.008C36.1466 46.123 35.9319 46.2763 35.7939 46.468C35.6636 46.6597 35.5984 46.8743 35.5984 47.112C35.5984 47.3957 35.6866 47.6218 35.8629 47.7905C36.0469 47.9592 36.2808 48.0933 36.5644 48.193C36.8558 48.2927 37.1739 48.3847 37.5189 48.469C37.8639 48.5457 38.2089 48.6338 38.5539 48.7335C38.9066 48.8332 39.2248 48.9635 39.5084 49.1245C39.7998 49.2855 40.0336 49.5002 40.2099 49.7685C40.3863 50.0368 40.4744 50.3818 40.4744 50.8035C40.4744 51.2098 40.3633 51.5893 40.1409 51.942C39.9186 52.287 39.5736 52.5668 39.1059 52.7815C38.6459 52.9885 38.0633 53.092 37.3579 53.092ZM43.201 48.423H47.341V49.4005H43.201V48.423ZM43.3045 51.9995H47.9965V53H42.1545V44.95H47.8355V45.9505H43.3045V51.9995ZM56.581 53.092C55.9677 53.092 55.3965 52.9885 54.8675 52.7815C54.3462 52.5745 53.8938 52.287 53.5105 51.919C53.1272 51.5433 52.8282 51.1063 52.6135 50.608C52.3988 50.1097 52.2915 49.5653 52.2915 48.975C52.2915 48.3847 52.3988 47.8403 52.6135 47.342C52.8282 46.8437 53.1272 46.4105 53.5105 46.0425C53.8938 45.6668 54.3462 45.3755 54.8675 45.1685C55.3888 44.9615 55.96 44.858 56.581 44.858C57.1943 44.858 57.7578 44.9615 58.2715 45.1685C58.7928 45.3678 59.2452 45.6553 59.6285 46.031C60.0195 46.399 60.3185 46.8322 60.5255 47.3305C60.7402 47.8288 60.8475 48.377 60.8475 48.975C60.8475 49.573 60.7402 50.1212 60.5255 50.6195C60.3185 51.1178 60.0195 51.5548 59.6285 51.9305C59.2452 52.2985 58.7928 52.586 58.2715 52.793C57.7578 52.9923 57.1943 53.092 56.581 53.092ZM56.581 52.0685C57.0257 52.0685 57.4358 51.9918 57.8115 51.8385C58.1948 51.6852 58.5245 51.4705 58.8005 51.1945C59.0842 50.9108 59.3027 50.5812 59.456 50.2055C59.617 49.8298 59.6975 49.4197 59.6975 48.975C59.6975 48.5303 59.617 48.1202 59.456 47.7445C59.3027 47.3688 59.0842 47.043 58.8005 46.767C58.5245 46.4833 58.1948 46.2648 57.8115 46.1115C57.4358 45.9582 57.0257 45.8815 56.581 45.8815C56.1287 45.8815 55.7108 45.9582 55.3275 46.1115C54.9518 46.2648 54.6222 46.4833 54.3385 46.767C54.0548 47.043 53.8325 47.3688 53.6715 47.7445C53.5182 48.1202 53.4415 48.5303 53.4415 48.975C53.4415 49.4197 53.5182 49.8298 53.6715 50.2055C53.8325 50.5812 54.0548 50.9108 54.3385 51.1945C54.6222 51.4705 54.9518 51.6852 55.3275 51.8385C55.7108 51.9918 56.1287 52.0685 56.581 52.0685ZM63.6402 48.7565H67.7917V49.7455H63.6402V48.7565ZM63.7552 53H62.6052V44.95H68.2862V45.9505H63.7552V53ZM72.9934 53V44.95H74.1434V53H72.9934ZM76.5534 53V44.95H77.4964L82.8209 51.5625H82.3264V44.95H83.4764V53H82.5334L77.2089 46.3875H77.7034V53H76.5534ZM87.4845 53V45.9505H84.7245V44.95H91.383V45.9505H88.623V53H87.4845ZM93.682 48.423H97.822V49.4005H93.682V48.423ZM93.7855 51.9995H98.4775V53H92.6355V44.95H98.3165V45.9505H93.7855V51.9995ZM100.34 53V44.95H101.49V51.9995H105.848V53H100.34ZM107.168 53V44.95H108.318V51.9995H112.676V53H107.168ZM113.996 53V44.95H115.146V53H113.996ZM121.19 53.092C120.569 53.092 119.998 52.9923 119.476 52.793C118.955 52.586 118.503 52.2985 118.119 51.9305C117.736 51.5548 117.437 51.1178 117.222 50.6195C117.008 50.1212 116.9 49.573 116.9 48.975C116.9 48.377 117.008 47.8288 117.222 47.3305C117.437 46.8322 117.736 46.399 118.119 46.031C118.51 45.6553 118.967 45.3678 119.488 45.1685C120.009 44.9615 120.584 44.858 121.213 44.858C121.849 44.858 122.432 44.9615 122.961 45.1685C123.49 45.3755 123.938 45.686 124.306 46.1L123.593 46.813C123.264 46.491 122.903 46.2572 122.512 46.1115C122.129 45.9582 121.711 45.8815 121.259 45.8815C120.799 45.8815 120.37 45.9582 119.971 46.1115C119.58 46.2648 119.239 46.4795 118.947 46.7555C118.664 47.0315 118.441 47.3612 118.28 47.7445C118.127 48.1202 118.05 48.5303 118.05 48.975C118.05 49.412 118.127 49.8222 118.28 50.2055C118.441 50.5812 118.664 50.9108 118.947 51.1945C119.239 51.4705 119.58 51.6852 119.971 51.8385C120.362 51.9918 120.787 52.0685 121.247 52.0685C121.677 52.0685 122.087 52.0033 122.478 51.873C122.877 51.735 123.245 51.5088 123.582 51.1945L124.237 52.0685C123.839 52.4058 123.371 52.6627 122.834 52.839C122.305 53.0077 121.757 53.092 121.19 53.092ZM123.133 51.919V48.929H124.237V52.0685L123.133 51.919ZM127.486 48.423H131.626V49.4005H127.486V48.423ZM127.589 51.9995H132.281V53H126.439V44.95H132.12V45.9505H127.589V51.9995ZM134.143 53V44.95H135.086L140.411 51.5625H139.916V44.95H141.066V53H140.123L134.799 46.3875H135.293V53H134.143ZM147.075 53.092C146.462 53.092 145.895 52.9923 145.373 52.793C144.86 52.586 144.411 52.2985 144.028 51.9305C143.652 51.5548 143.357 51.1178 143.142 50.6195C142.928 50.1212 142.82 49.573 142.82 48.975C142.82 48.377 142.928 47.8288 143.142 47.3305C143.357 46.8322 143.656 46.399 144.039 46.031C144.423 45.6553 144.871 45.3678 145.385 45.1685C145.906 44.9615 146.473 44.858 147.087 44.858C147.708 44.858 148.279 44.9653 148.8 45.18C149.329 45.387 149.778 45.6975 150.146 46.1115L149.398 46.836C149.092 46.514 148.747 46.2763 148.363 46.123C147.98 45.962 147.57 45.8815 147.133 45.8815C146.68 45.8815 146.259 45.9582 145.868 46.1115C145.484 46.2648 145.151 46.4795 144.867 46.7555C144.584 47.0315 144.361 47.3612 144.2 47.7445C144.047 48.1202 143.97 48.5303 143.97 48.975C143.97 49.4197 144.047 49.8337 144.2 50.217C144.361 50.5927 144.584 50.9185 144.867 51.1945C145.151 51.4705 145.484 51.6852 145.868 51.8385C146.259 51.9918 146.68 52.0685 147.133 52.0685C147.57 52.0685 147.98 51.9918 148.363 51.8385C148.747 51.6775 149.092 51.4322 149.398 51.1025L150.146 51.827C149.778 52.241 149.329 52.5553 148.8 52.77C148.279 52.9847 147.704 53.092 147.075 53.092ZM152.833 48.423H156.973V49.4005H152.833V48.423ZM152.936 51.9995H157.628V53H151.786V44.95H157.467V45.9505H152.936V51.9995Z" fill="white"/>
<g clip-path="url(#clip0_80_91)">
<path d="M30.9678 11.6931L26.3896 7.16644L13.9136 19.8146V0H7.47656V39.6527H13.9136V28.9822L16.8789 25.9732L27.4873 40.0864L32.6305 36.2131L21.4513 21.3411L30.9678 11.6931Z" fill="white"/>
<path d="M59.3943 25.5196C59.3943 29.6829 56.0104 33.0698 51.8507 33.0698C47.6911 33.0698 44.3072 29.6829 44.3072 25.5196V8.34766H37.8701V25.5196C37.8701 33.2339 44.1403 39.5097 51.8478 39.5097C59.5553 39.5097 65.8255 33.2339 65.8255 25.5196V8.34766H59.3884V25.5196H59.3943Z" fill="white"/>
<path d="M89.1237 7.12249C85.406 7.12249 81.9753 8.37354 79.2266 10.4743V0H72.7896V23.7436H72.7925C72.9388 32.6328 80.2072 39.8168 89.1207 39.8168C98.0343 39.8168 105.455 32.4834 105.455 23.4682C105.455 14.453 98.1279 7.11956 89.1207 7.11956L89.1237 7.12249ZM89.1237 33.374C83.6673 33.374 79.2266 28.9294 79.2266 23.4682C79.2266 18.0069 83.6673 13.5623 89.1237 13.5623C94.5801 13.5623 99.0207 18.0069 99.0207 23.4682C99.0207 28.9294 94.5801 33.374 89.1237 33.374Z" fill="white"/>
<path d="M140.91 32.9546C138.199 32.9546 135.737 31.8794 133.949 30.142L156.527 17.403L154.65 14.5258C151.626 9.88786 146.489 7.11914 140.913 7.11914C131.906 7.11914 124.579 14.3588 124.579 23.2568C124.579 32.1548 131.906 39.3945 140.913 39.3945C146.229 39.3945 151.231 36.825 154.287 32.521L149.042 28.7884C147.189 31.396 144.15 32.9546 140.913 32.9546H140.91ZM131.013 23.2597C131.013 17.9127 135.453 13.5648 140.91 13.5648C143.085 13.5648 145.146 14.2533 146.829 15.4839L131.077 24.3702C131.033 24.0069 131.013 23.6348 131.013 23.2597Z" fill="white"/>
<path d="M117.325 29.2371V0H110.888V29.2371C110.888 34.9708 115.536 39.8168 121.039 39.8168H122.445V33.374H121.039C119.096 33.374 117.322 31.4022 117.322 29.2341L117.325 29.2371Z" fill="white"/>
</g>
<defs>
<clipPath id="clip0_80_91">
<rect width="149.047" height="40.0863" fill="white" transform="translate(7.47656)"/>
</clipPath>
</defs>
</svg>